# xmcd CD database file
#
# Track frame offsets:
#	150
#	20279
#	31969
#	56650
#	71177
#	88603
#	102604
#	118624
#	145021
#	161234
#	179949
#	197681
#
# Disc length: 3004 seconds
#
# Revision: 0
# Processed by: cddbd v1.4b41PL1 Copyright (c) Steve Scherf et al.
# Submitted via: Feurio! 1.61 - http://www.feurio.com
#
DISCID=b10bba0c
DTITLE=Christianshavns Bluesband - Christianshavns Bluesband
DYEAR=1900
DGENRE=
TTITLE0=I Heard It Through The Grapevine
TTITLE1=She Loves My Automobile
TTITLE2=CC Rider
TTITLE3=Watching The River Flow
TTITLE4=All Night
TTITLE5=Rock Me Baby
TTITLE6=Don't Stop
TTITLE7=Purple Rain
TTITLE8=Hva'  Er Det Du Vil
TTITLE9=Gimme All Your Loving
TTITLE10=Bad Bad Man
TTITLE11=Love Me Tender
EXTD=
EXTT0=
EXTT1=
EXTT2=
EXTT3=
EXTT4=
EXTT5=
EXTT6=
EXTT7=
EXTT8=
EXTT9=
EXTT10=
EXTT11=
PLAYORDER=
